<?xml version="1.0" standalone="no"?>
<!DOCTYPE svg PUBLIC "-//W3C//DTD SVG 20010904//EN"
 "http://www.w3.org/TR/2001/REC-SVG-20010904/DTD/svg10.dtd">
<svg version="1.0" xmlns="http://www.w3.org/2000/svg"
 width="1000.000000pt" height="1000.000000pt" viewBox="0 0 1000.000000 1000.000000"
 preserveAspectRatio="xMidYMid meet">
<metadata>
Created by potrace 1.11, written by Peter Selinger 2001-2013
</metadata>
<g transform="translate(0.000000,1000.000000) scale(0.100000,-0.100000)"
fill="#000000" stroke="none">
<path d="M1337 6462 c-2 -4 -4 -657 -3 -1452 l1 -1445 525 0 c497 1 531 2 640
22 613 117 1040 524 1160 1105 25 125 31 188 31 337 -1 148 -4 177 -25 296
-94 511 -436 895 -942 1061 -65 21 -196 50 -309 69 -55 9 -1073 16 -1078 7z
m1096 -416 c220 -45 400 -138 542 -281 143 -144 236 -333 272 -554 5 -25 8
-120 7 -211 0 -146 -4 -178 -28 -275 -93 -371 -359 -638 -725 -731 -133 -34
-153 -36 -458 -38 l-273 -3 0 1059 0 1058 293 -4 c214 -3 313 -8 370 -20z"/>
<path d="M4299 6437 c0 -18 -1 -671 -1 -1452 l-1 -1420 959 0 959 0 0 195 0
195 -744 5 -744 5 0 1251 0 1251 -214 1 -213 1 -1 -32z"/>
<path d="M6473 5457 c1 -557 6 -1025 10 -1042 4 -16 10 -43 13 -60 27 -142
110 -327 198 -439 141 -179 396 -326 626 -361 120 -18 175 -22 269 -20 327 8
579 106 777 300 136 133 248 356 279 556 4 24 9 58 12 74 3 17 6 474 7 1017
l3 986 -215 -1 -215 -2 -2 -980 c-2 -969 -2 -981 -23 -1060 -70 -258 -250
-430 -502 -480 -164 -33 -347 -6 -490 72 -157 87 -284 282 -306 473 -3 25 -7
54 -9 65 -2 11 -4 446 -4 967 l-1 946 -215 0 -216 0 4 -1011z"/>
</g>
</svg>
